<?xml version="1.0" encoding="utf-8"?>
<!-- Generator: Adobe Illustrator 25.4.1, SVG Export Plug-In . SVG Version: 6.00 Build 0)  -->
<svg version="1.1" id="Layer_1" xmlns="http://www.w3.org/2000/svg" xmlns:xlink="http://www.w3.org/1999/xlink" x="0px" y="0px"
	 viewBox="0 0 228.7 39.1" style="enable-background:new 0 0 228.7 39.1;" xml:space="preserve">
<style type="text/css">
	.st0{fill:#908AFF;stroke:#000000;stroke-miterlimit:10;}
	.st1{fill:#FFFFFF;stroke:#000000;stroke-miterlimit:10;}
</style>
<path class="st0" d="M6.2,11c-1.6,6-3.3,11.2-3.7,11.7s-1,0.9-1.5,0.9c-0.9-0.1-1,0.1-1,2.2V28h5.3h5.3v-2.2v-2.2H9.4
	c-1.4,0-1.5-0.4-0.9-2.6l0.4-1.4h2.8h2.8l0.4,1.4c0.6,2.3,0.5,2.6-1,2.6h-1.4v2.2V28h7.1h7.1v-2.2v-2.2h-1.3c-1.6,0-1.6,0-4.9-12.9
	L17.8,0.2h-4.3H9.3L6.2,11z M12.3,11.2c0.3,1.1,0.5,2.4,0.6,2.8c0.1,0.7,0,0.8-1.3,0.8c-0.9,0-1.5-0.1-1.5-0.3c0-1,1.3-5.9,1.4-5.6
	C11.8,9.1,12.1,10.1,12.3,11.2z"/>
<path class="st0" d="M31.8,3.4c-0.1,0.3-0.1,1.2,0,2C32,6.8,32,6.9,33,7.1c0.6,0.1,1.2,0.2,1.3,0.4c0.3,0.3,0.4,13.7,0.1,15.3
	c-0.1,1.2-0.3,1.3-1.5,1.3h-1.3v2v2h9.5h9.7v-5.4v-5.4H49h-1.8L47,19.2c-0.4,3.8-1.3,4.9-4.2,4.9h-1.3v-8.4V7.4l1.3-0.3l1.3-0.3v-2
	v-2H38C33.2,2.9,32,3,31.8,3.4z"/>
<path class="st0" d="M55.2,3.3c-0.3,1.1,0,3.7,0.4,3.7c0.3,0,0.7,0.1,1.1,0.1l0.7,0.1v8.4V24h-1.2H55v2v2h9.4h9.4v-5.5V17l-1.6,0.1
	l-1.6,0.1L70.5,19c-0.5,4.3-1.1,4.8-4.6,4.8h-2.4l0.1-3.6c0.1-3.5,0.1-3.5,0.8-3.4c1.1,0.2,1.3,0.8,1.5,2.4c0.1,1.5,0.1,1.5,1.5,1.6
	l1.3,0.1v-6.1V9.1l-1.3,0.1c-1.3,0.1-1.3,0.2-1.5,1.3C65.6,12,65,13.1,64,13.1c-0.7,0-0.7-0.1-0.7-3c0-1.7,0.1-3.1,0.3-3.3
	c0.1-0.2,1.3-0.1,2.6,0c2.6,0.3,3.4,1,4,4l0.4,1.9l1.6-0.1l1.6-0.1V7.8V2.9l-9.3-0.1C56.8,2.7,55.3,2.8,55.2,3.3z"/>
<path class="st0" d="M78.6,3.4c-0.1,0.3-0.1,1.2,0,2.1c0.1,1.4,0.1,1.6,1,1.7c0.7,0.1,1.5,1.1,3.7,4.5c1.5,2.4,2.8,4.5,2.8,4.6
	c0,0.4-4.6,7.1-5.2,7.4c-0.3,0.2-1,0.4-1.5,0.4c-1,0-1,0-1,2v2h5.2h5.2v-2c0-2,0-2-1-2c-0.4,0-1-0.1-1-0.3c0-0.4,2.5-3.9,2.7-3.7
	c2.1,3.2,2.2,4,1.2,4C90,24,90,24.3,90,26v2h5.8h5.8v-2c0-1.9,0-2-0.9-2c-1,0-1.3-0.3-4.4-5.6l-2.4-4.2l2.2-3.3
	c1.5-2.1,2.7-3.5,3.1-3.6c1.6-0.4,1.6-0.5,1.6-2.6v-2l-4.7,0.1L91.2,3v2c0,1.9,0,2,0.9,2.2L93,7.4l-1.2,1.7l-1.2,1.7l-0.9-1.5
	c-1-1.8-1.2-2.1-0.3-2.1C90,7.2,90,6.9,90,5V2.8h-5.6C80,2.8,78.8,2.9,78.6,3.4z"/>
<path class="st0" d="M121,0.3c-0.2,0.1-0.4,2.7-0.4,5.6v5.3h2.7h2.6l0.3-1.9c0.4-2.2,1.9-3.8,4.1-4l1.5-0.1l0.1,7.8
	c0.1,4.3,0,8.5-0.1,9.2c-0.3,1.4-0.4,1.5-2.5,1.5H127v2.2v2.2h10.4H148v-2.2v-2.2h-2.5c-2.4,0-2.5,0-2.8-1.5
	c-0.1-0.8-0.3-4.9-0.1-9.2l0.1-7.8l1.5,0.1c2.1,0.2,3.7,1.8,4.1,4l0.3,1.9h2.7h2.7l-0.1-5.5l-0.1-5.4l-16.2-0.1
	C128.7,0.1,121.2,0.2,121,0.3z"/>
<path class="st0" d="M159,0.8c-0.1,0.4-0.2,1.4-0.1,2.3c0.1,1.6,0.3,1.7,1.9,1.9c1,0.1,1.9,0.3,2.1,0.4c0.4,0.4,0.7,15.2,0.3,16.9
	c-0.3,1.4-0.5,1.5-2.3,1.5h-2.1V26v2.2h15.6h15.7v-6v-6h-2.8h-2.9l-0.4,2.1c-0.6,4.2-2.3,5.5-6.8,5.5H175v-9.3V5.2l2.1-0.3l2.1-0.3
	V2.4V0.2h-9.9C161.2,0.2,159.2,0.3,159,0.8z"/>
<path class="st0" d="M202.7,11c-2.1,5.9-4.3,11.2-4.7,11.7c-0.5,0.5-1.3,0.9-2,0.9c-1.1,0-1.1,0.2-1.1,2.2V28h6.8h6.8v-2.2v-2.2
	h-1.6c-1.8,0-2-0.4-1.1-2.6l0.5-1.4h3.6h3.6L214,21c0.8,2.3,0.7,2.6-1.3,2.6h-1.8v2.2V28h9.1h9.1v-2.2v-2.2h-1.6
	c-2.1,0-2.1,0-6.3-12.9l-3.4-10.4h-5.4H207L202.7,11z M210.6,11.2c0.4,1.1,0.7,2.3,0.8,2.7c0.2,0.7-0.1,0.8-1.6,0.8
	c-1.1,0-1.9-0.1-1.9-0.3c0-1,1.6-5.8,1.8-5.6C209.8,9.1,210.2,10.1,210.6,11.2z"/>
<path class="st1" d="M3.9,29c-1.2,0.1-2.1,0.5-2.9,1.1c-1.4,1.1-1.3,3.1,0.3,4.1c0.3,0.2,1.6,0.6,3.1,1c2.6,0.6,3.4,1,3.2,1.5
	c-0.2,0.5-0.7,0.6-1.7,0.6c-1.5,0-2.6-0.6-3.4-1.8C2.2,35,2.1,35,1.2,35h-1l0.1,1.9l0.1,1.9h0.9c0.6,0,0.9,0,1.1-0.2
	c0.2-0.2,0.4-0.2,1.6,0.1c2.6,0.6,5.6,0.3,6.9-0.7c0.7-0.5,1.1-1.4,1.1-2.2c0-1.8-1.6-2.7-5.6-3.4c-1.8-0.3-2.4-0.7-2.1-1.1
	c0.3-0.5,1-0.7,2-0.6c1.2,0.1,1.9,0.5,2.4,1.3c0.4,0.6,0.4,0.6,1.5,0.6h1.1v-1.7v-1.7h-0.9c-0.5,0-1,0.1-1.2,0.2s-0.4,0.1-1,0
	C7.1,28.9,5.2,28.8,3.9,29z"/>
<path class="st1" d="M23,29.1c-0.1,0.1-0.1,0.5,0,0.8c0.1,0.6,0.1,0.6,0.7,0.7h0.6V34v3.3h-0.7h-0.7v0.8v0.8h3.3h3.3v-0.8v-0.8h-0.7
	c-0.8,0-0.9-0.2-0.8-1.7l0.1-1l1.9-0.1c2.3-0.1,3.3-0.5,3.9-1.4c0.4-0.7,0.4-2,0-2.7c-0.7-1.3-1.9-1.6-7.1-1.6
	C23.8,28.9,23.1,28.9,23,29.1z M30.1,31c0.3,0.3,0.3,1.5,0,1.8c-0.1,0.1-0.7,0.3-1.2,0.3L28,33.2v-1.3v-1.3l0.9,0.1
	C29.4,30.7,29.9,30.9,30.1,31z"/>
<path class="st1" d="M156.1,29c-1.2,0.1-2.1,0.5-2.9,1.1c-1.4,1.1-1.3,3.1,0.3,4.1c0.3,0.2,1.6,0.6,3.1,1c2.6,0.6,3.4,1,3.2,1.5
	s-0.7,0.6-1.7,0.6c-1.5,0-2.6-0.6-3.4-1.8c-0.3-0.5-0.4-0.5-1.3-0.5h-1l0.1,1.9l0.1,1.9h0.9c0.6,0,0.9,0,1.1-0.2
	c0.2-0.2,0.4-0.2,1.6,0.1c2.6,0.6,5.6,0.3,6.9-0.7c0.7-0.5,1.1-1.4,1.1-2.2c0-1.8-1.6-2.7-5.6-3.4c-1.8-0.3-2.4-0.7-2.1-1.1
	c0.3-0.5,1-0.7,2-0.6c1.2,0.1,1.9,0.5,2.4,1.3c0.4,0.6,0.4,0.6,1.5,0.6h1.1v-1.7v-1.7h-0.9c-0.5,0-1,0.1-1.2,0.2s-0.4,0.1-1,0
	C159.3,29,157.4,28.9,156.1,29z"/>
<path class="st1" d="M93.2,29c-1.2,0.1-2.1,0.5-2.9,1.1c-1.4,1.1-1.3,3.1,0.3,4.1c0.3,0.2,1.6,0.6,3.1,1c2.6,0.6,3.4,1,3.2,1.5
	c-0.2,0.5-0.7,0.6-1.7,0.6c-1.5,0-2.6-0.6-3.4-1.8C91.5,35,91.4,35,90.5,35h-1l0.1,1.9l0.1,1.9h0.9c0.6,0,0.9,0,1.1-0.2
	s0.4-0.2,1.6,0.1c2.6,0.6,5.6,0.3,6.9-0.7c0.7-0.5,1.1-1.4,1.1-2.2c0-1.8-1.6-2.7-5.6-3.4c-1.8-0.3-2.4-0.7-2.1-1.1
	c0.3-0.5,1-0.7,2-0.6c1.2,0.1,1.9,0.5,2.4,1.3c0.4,0.6,0.4,0.6,1.5,0.6h1.1v-1.7v-1.7h-0.9c-0.5,0-1,0.1-1.2,0.2s-0.4,0.1-1,0
	C96.4,29,94.5,28.9,93.2,29z"/>
<path class="st1" d="M48.7,29.1c-2.1,0.2-3.8,1.2-4.7,2.8c-0.3,0.6-0.4,1-0.4,2.3c0,1.5,0.1,1.7,0.5,2.4c1.2,1.9,3.3,2.8,6.4,2.6
	c2.8-0.1,4.4-0.9,5.4-2.7c0.5-0.9,0.6-1.2,0.6-2.3c0-1.6-0.4-2.6-1.3-3.5c-0.8-0.8-2.3-1.4-3.5-1.6c-0.5,0-1.1-0.1-1.3-0.1
	C50,29,49.3,29,48.7,29.1z M51.1,31.1c0.6,0.4,0.8,1.3,0.8,3c0,2.6-0.5,3.5-2,3.5c-0.8,0-1.5-0.6-1.7-1.5c-0.3-1.1-0.2-3.4,0.2-4.2
	C48.9,30.6,50.1,30.3,51.1,31.1z"/>
<path class="st1" d="M66.7,29.8v0.9h0.6h0.6V34v3.3h-0.6h-0.6v0.9v0.9H69h2.3v-0.8c0-0.8,0-0.8-0.6-0.9l-0.6-0.1v-2.4
	c0-2.1,0-2.3,0.2-2c0.1,0.2,1,1.7,1.8,3.3l1.6,2.9h1.8h1.8l0.1-4.1l0.1-4.1H78c0.5,0,0.5-0.1,0.5-0.9v-1h-2.3h-2.3v0.9v0.9h0.6
	c0.3,0,0.6,0.1,0.7,0.2c0,0.1,0,1.1,0,2.2v2l-1.7-3L71.9,29h-2.6h-2.6C66.7,29,66.7,29.8,66.7,29.8z"/>
<path class="st1" d="M113.7,28.8c-2,0.2-3.6,1.2-4.4,2.8c-0.3,0.6-0.4,1-0.4,2.3c0,1.5,0.1,1.7,0.5,2.4c1.1,1.9,3.1,2.8,6,2.7
	c2.6-0.1,4.1-0.9,5.1-2.7c0.5-0.9,0.5-1.2,0.5-2.3c0-1.6-0.4-2.6-1.3-3.6c-0.8-0.8-2.1-1.5-3.3-1.6c-0.4,0-1-0.1-1.2-0.1
	C114.9,28.7,114.3,28.8,113.7,28.8z M116,30.9c0.5,0.4,0.7,1.3,0.7,3c0,2.6-0.5,3.5-1.8,3.5c-0.8,0-1.4-0.6-1.6-1.5
	c-0.3-1.1-0.2-3.5,0.2-4.3C113.9,30.4,115,30.1,116,30.9z"/>
<path class="st1" d="M129.7,29.6v0.8h0.6h0.6v3.3V37h-0.6h-0.6v1v0.8h3.1h3.1V38v-0.8h-0.7h-0.7v-1.3v-1.3h0.8c0.5,0,0.9,0.1,1,0.2
	c0.1,0.1,0.2,0.8,0.3,1.6c0.1,1.6,0.5,2.3,1.3,2.6s1.9,0.2,2.7-0.1c0.5-0.2,0.7-0.4,0.9-1c0.2-0.4,0.3-1,0.2-1.3
	c0-0.6-0.1-0.6-0.6-0.6s-0.6,0-0.6,0.6c-0.1,1-0.4,0.7-0.5-0.7s-0.3-1.8-0.8-2.1c-0.3-0.2-0.3-0.2,0.1-0.5c0.6-0.4,1-1.1,1-1.9
	c0-1-0.5-1.7-1.4-2.1c-0.7-0.3-1-0.4-5-0.4l-4.2-0.1L129.7,29.6z M136.4,30.8c0.3,0.3,0.4,1.2,0.2,1.5s-0.9,0.5-1.6,0.5h-0.5v-1.2
	v-1.2h0.8C135.9,30.5,136.2,30.6,136.4,30.8z"/>
<path class="st1" d="M173.7,29.5c0,0.4,0,0.8,0,0.8c0,0.1,0.2,0.1,0.6,0.2c1.3,0.1,1.2,0,1.2,3.3c0,1.7-0.1,3.2-0.1,3.4
	c-0.1,0.2-0.4,0.3-0.9,0.3h-0.7v0.8v0.8h3.8h3.8v-0.8c0-0.7-0.1-0.8-0.5-0.9c-0.5,0-0.5-0.1-0.6-1.4l-0.1-1.4h1.7h1.7l-0.1,1.4
	c-0.1,1.3-0.1,1.4-0.5,1.4s-0.5,0.1-0.5,0.9v0.8h3.8h3.8v-0.8v-0.8h-0.8h-0.8V34v-3.4l0.8-0.1c0.8-0.1,0.8-0.2,0.8-1v-0.8h-3.8h-3.8
	v0.9c0,0.9,0,0.9,0.5,0.9s0.5,0,0.5,1.2v1.2h-1.6h-1.6v-1.1c0-1.1,0-1.2,0.5-1.2c0.4,0,0.5-0.2,0.5-0.9l0.1-0.9h-3.8h-3.8
	L173.7,29.5L173.7,29.5z"/>
<path class="st1" d="M200,29.6c0,0.8,0,0.8,0.8,1l0.8,0.1v3.4v3.4h-0.8H200v0.8v0.8h4.1h4.1v-0.8v-0.8h-0.8h-0.8l-0.1-3.4v-3.4
	l0.9-0.1l0.9-0.1v-0.8v-0.8h-4.1H200V29.6z"/>
<path class="st1" d="M216.5,28.7c-0.1,0.1-0.1,0.5,0,0.9c0.1,0.6,0.1,0.7,0.8,0.7l0.7,0.1v3.5v3.5h-0.8h-0.8v0.8v0.8h3.7h3.7v-0.8
	v-0.8H223c-0.9,0-1-0.2-0.9-1.8l0.1-1l2.2-0.1c2.6-0.1,3.8-0.5,4.4-1.5c0.5-0.7,0.5-2.1,0-2.9c-0.8-1.4-2.2-1.7-8.1-1.7
	C217.3,28.5,216.5,28.5,216.5,28.7z M224.5,30.7c0.4,0.4,0.4,1.6,0,2c-0.2,0.1-0.8,0.3-1.3,0.3l-1.1,0.1v-1.4v-1.4l1.1,0.1
	C223.7,30.4,224.3,30.5,224.5,30.7z"/>
</svg>
